HIERARCHY
ROOT Hips
{
	OFFSET 46.155300 -33.944714 84.000290
	CHANNELS 6 Xposition Yposition Zposition Xrotation Yrotation Zrotation
	JOINT spine
	{
		OFFSET 0.000000 -0.359108 6.244789
		CHANNELS 3 Xrotation Yrotation Zrotation
		JOINT spine1
		{
			OFFSET 0.000000 0.000000 9.069412
			CHANNELS 3 Xrotation Yrotation Zrotation
			JOINT spine2
			{
				OFFSET 0.000000 -0.000004 8.690140
				CHANNELS 3 Xrotation Yrotation Zrotation
				JOINT Neck
				{
					OFFSET 0.000000 -1.063725 22.311211
					CHANNELS 3 Xrotation Yrotation Zrotation
					JOINT Head
					{
						OFFSET 0.000000 0.000000 6.740814
						CHANNELS 3 Xrotation Yrotation Zrotation
						End Site
						{
							OFFSET 0.000000 5.380968 16.316498
						}
					}
				}
				JOINT RightShoulder
				{
					OFFSET -3.659161 0.509514 9.384682
					CHANNELS 3 Xrotation Yrotation Zrotation
					JOINT RightArm
					{
						OFFSET 0.000000 -0.000004 12.308914
						CHANNELS 3 Xrotation Yrotation Zrotation
						JOINT RightArmRoll
						{
							OFFSET 0.000000 0.000000 6.213745
							CHANNELS 3 Xrotation Yrotation Zrotation
							JOINT RightForeArm
							{
								OFFSET 0.000000 -0.000004 18.098495
								CHANNELS 3 Xrotation Yrotation Zrotation
								JOINT RightForeArmRoll
								{
									OFFSET 0.000000 0.000000 6.972794
									CHANNELS 3 Xrotation Yrotation Zrotation
									JOINT RightHand
									{
										OFFSET 0.000000 0.000000 13.992905
										CHANNELS 3 Xrotation Yrotation Zrotation
										End Site
										{
											OFFSET 0.000000 0.000000 0.100006
										}
									}
								}
							}
						}
					}
				}
				JOINT LeftShoulder
				{
					OFFSET 3.659161 0.509514 9.384682
					CHANNELS 3 Xrotation Yrotation Zrotation
					JOINT LeftArm
					{
						OFFSET 0.000000 -0.000004 12.308914
						CHANNELS 3 Xrotation Yrotation Zrotation
						JOINT LeftArmRoll
						{
							OFFSET 0.000000 0.000000 6.213745
							CHANNELS 3 Xrotation Yrotation Zrotation
							JOINT LeftForeArm
							{
								OFFSET 0.000000 -0.000004 18.098495
								CHANNELS 3 Xrotation Yrotation Zrotation
								JOINT LeftForeArmRoll
								{
									OFFSET 0.000000 0.000000 6.972794
									CHANNELS 3 Xrotation Yrotation Zrotation
									JOINT LeftHand
									{
										OFFSET 0.000000 0.000000 13.992905
										CHANNELS 3 Xrotation Yrotation Zrotation
										End Site
										{
											OFFSET 0.000000 0.000000 0.100006
										}
									}
								}
							}
						}
					}
				}
			}
		}
	}
	JOINT RightUpLeg
	{
		OFFSET -5.535149 0.851456 -1.014999
		CHANNELS 3 Xrotation Yrotation Zrotation
		JOINT RightUpLegRoll
		{
			OFFSET 0.000000 0.000000 16.407501
			CHANNELS 3 Xrotation Yrotation Zrotation
			JOINT RightLeg
			{
				OFFSET 0.000000 0.000004 -20.318100
				CHANNELS 3 Xrotation Yrotation Zrotation
				JOINT RightLegRoll
				{
					OFFSET 0.000000 -0.000004 20.384598
					CHANNELS 3 Xrotation Yrotation Zrotation
					JOINT RightFoot
					{
						OFFSET 0.000000 -0.000004 16.966805
						CHANNELS 3 Xrotation Yrotation Zrotation
						JOINT RightToeBase
						{
							OFFSET 0.000000 -0.000004 14.183403
							CHANNELS 3 Xrotation Yrotation Zrotation
							End Site
							{
								OFFSET 0.006012 0.791744 6.868896
							}
						}
					}
				}
			}
		}
	}
	JOINT LeftUpLeg
	{
		OFFSET 5.535149 0.851456 -1.014999
		CHANNELS 3 Xrotation Yrotation Zrotation
		JOINT LeftUpLegRoll
		{
			OFFSET 0.000000 0.000000 16.407600
			CHANNELS 3 Xrotation Yrotation Zrotation
			JOINT LeftLeg
			{
				OFFSET 0.000000 -0.000004 20.318100
				CHANNELS 3 Xrotation Yrotation Zrotation
				JOINT LeftLegRoll
				{
					OFFSET 0.000000 -0.000004 20.573112
					CHANNELS 3 Xrotation Yrotation Zrotation
					JOINT LeftFoot
					{
						OFFSET 0.000000 -0.000004 16.778305
						CHANNELS 3 Xrotation Yrotation Zrotation
						JOINT LeftToeBase
						{
							OFFSET 0.000000 0.000000 14.183395
							CHANNELS 3 Xrotation Yrotation Zrotation
							End Site
							{
								OFFSET -0.026943 0.791740 6.868896
							}
						}
					}
				}
			}
		}
	}
}
MOTION
Frames: 4
Frame Time: 0.041667
47.580299 5.781487 48.872696 -12.058489 -1.761755 0.152490 2.689860 0.201722 0.024204 9.369314 0.420461 0.014661 11.014405 0.420654 0.009597 8.210044 7.930325 -0.271393 6.425414 -3.776181 -0.874174 -6.901870 -58.038460 -8.026932 -51.668277 -140.664222 -68.816471 0.000000 0.000000 -0.000004 50.410249 -13.184421 4.292243 -0.000003 0.000007 -3.000011 -5.000239 -7.998682 0.000191 -18.030970 70.285064 21.333906 109.393512 44.053084 -95.170237 0.000001 0.000000 -0.000000 47.209960 14.185567 -4.539812 -0.000009 -0.000005 3.000001 -5.000079 7.998714 -0.000126 -76.934281 174.891488 -2.160389 179.999991 -0.000004 -0.854988 102.154433 3.209185 1.230255 -0.000007 -0.000002 0.997282 62.390383 5.659109 5.228386 25.460399 -7.355628 0.009974 -77.184601 179.391353 3.458015 0.000011 -0.000004 -0.945677 -83.480806 -4.077958 -1.510156 -0.000004 -0.000000 -0.972190 64.781858 -5.352942 -5.981242 25.456887 7.347852 0.000005 
47.585701 5.781574 48.878601 -12.032672 -1.746021 0.152583 2.688527 0.202346 0.023089 9.367626 0.420756 0.012635 11.012805 0.420929 0.007563 8.210855 7.899407 -0.253516 6.414631 -3.724871 -0.859459 -6.866650 -58.065344 -7.987259 -51.684076 -140.645493 -68.835186 0.000000 0.000001 -0.000004 50.439844 -13.179423 4.291816 -0.000003 0.000008 -3.000009 -5.000237 -7.998684 0.000190 -18.068260 70.212548 21.375530 109.478425 44.033659 -95.239065 0.000003 0.000000 -0.000000 47.216299 14.177909 -4.536958 -0.000008 -0.000004 3.000001 -5.000078 7.998716 -0.000125 -76.957025 174.880505 -2.155529 179.999991 -0.000004 -0.854988 102.156974 3.202202 1.226924 -0.000005 -0.000001 0.997315 62.395445 5.657773 5.232891 25.460398 -7.355628 0.009974 -77.212946 179.384687 3.469065 0.000011 -0.000004 -0.945677 -83.481502 -4.081713 -1.513664 -0.000003 0.000001 -0.974231 64.787336 -5.356247 -5.973613 25.456880 7.347852 0.000005 
47.581902 5.777309 48.871590 -12.006651 -1.729806 0.152433 2.687060 0.203024 0.021880 9.365705 0.421139 0.010384 11.010803 0.421292 0.005303 8.212327 7.866910 -0.235215 6.403295 -3.672440 -0.844195 -6.829295 -58.094242 -7.945240 -51.700625 -140.626191 -68.854167 0.000003 0.000002 -0.000003 50.469446 -13.174480 4.291268 -0.000004 0.000007 -3.000010 -5.000240 -7.998679 0.000190 -18.109224 70.138058 21.421247 109.565353 44.013780 -95.309211 0.000001 -0.000000 0.000001 47.222500 14.170138 -4.534027 -0.000009 -0.000007 3.000001 -5.000080 7.998716 -0.000124 -76.980132 174.868907 -2.149896 179.999991 -0.000005 -0.854988 102.159221 3.195140 1.223612 -0.000006 -0.000001 0.997364 62.400827 5.656477 5.237289 25.460398 -7.355627 0.009974 -77.241817 179.377638 3.479861 0.000011 -0.000004 -0.945677 -83.482773 -4.085639 -1.517188 -0.000003 0.000001 -0.976335 64.792937 -5.359740 -5.965722 25.456882 7.347853 0.000006 
47.579601 5.774273 48.880398 -11.980535 -1.713255 0.152107 2.685497 0.203740 0.020605 9.363616 0.421585 0.007977 11.008704 0.421715 0.002886 8.214251 7.833287 -0.216610 6.391584 -3.619224 -0.828544 -6.790469 -58.124609 -7.901583 -51.719121 -140.605058 -68.875614 0.000002 0.000000 -0.000003 50.499099 -13.169721 4.290956 -0.000004 0.000006 -3.000011 -5.000240 -7.998683 0.000191 -18.152515 70.062045 21.469562 109.654213 43.993365 -95.381030 -0.000000 0.000000 -0.000000 47.228620 14.162467 -4.531146 -0.000010 -0.000007 3.000001 -5.000081 7.998716 -0.000125 -77.003334 174.857159 -2.144689 179.999991 -0.000005 -0.854988 102.161414 3.187842 1.219328 -0.000006 -0.000001 0.997425 62.406496 5.655126 5.241760 25.460396 -7.355627 0.009974 -77.270914 179.370207 3.491004 0.000011 -0.000004 -0.945677 -83.484555 -4.089623 -1.521024 -0.000004 0.000000 -0.978484 64.798681 -5.363345 -5.957447 25.456883 7.347852 0.000006 
